<?xml version="1.0" standalone="no"?>
<!DOCTYPE svg PUBLIC "-//W3C//DTD SVG 20010904//EN"
 "http://www.w3.org/TR/2001/REC-SVG-20010904/DTD/svg10.dtd">
<svg version="1.0" xmlns="http://www.w3.org/2000/svg"
 width="197.000000pt" height="148.000000pt" viewBox="0 0 197.000000 148.000000"
 preserveAspectRatio="xMidYMid meet">
<metadata>
Created by potrace 1.16, written by Peter Selinger 2001-2019
</metadata>
<g transform="translate(0.000000,148.000000) scale(0.100000,-0.100000)"
fill="#000000" stroke="none">
<path d="M80 1450 c0 -5 7 -10 15 -10 8 0 15 -3 15 -7 -1 -13 -48 -194 -52
-197 -1 -2 -12 -8 -23 -14 -16 -9 -9 -11 40 -11 46 0 56 2 42 10 -12 7 -15 17
-11 37 6 26 41 72 54 72 3 0 15 -22 27 -48 18 -44 19 -50 4 -60 -12 -8 -4 -11
39 -11 48 0 53 1 38 13 -10 7 -30 40 -44 72 l-26 59 37 32 c21 18 51 38 66 45
40 18 36 28 -11 28 -32 0 -40 -4 -38 -16 2 -9 -22 -36 -59 -66 -67 -53 -69
-52 -52 18 8 32 16 44 30 44 11 0 19 5 19 10 0 6 -25 10 -55 10 -30 0 -55 -4
-55 -10z"/>
<path d="M370 1450 c0 -5 7 -10 16 -10 10 0 14 -6 10 -17 -3 -10 -15 -57 -27
-105 -17 -71 -19 -91 -9 -103 7 -8 18 -15 26 -15 15 0 44 38 44 57 0 23 -18
14 -24 -12 -4 -14 -11 -25 -16 -25 -13 0 -14 0 19 128 l29 112 -34 0 c-19 0
-34 -4 -34 -10z"/>
<path d="M517 1359 c-45 -26 -61 -113 -26 -144 17 -16 25 -17 49 -8 18 7 32 7
36 2 18 -30 70 11 61 49 -3 13 -7 9 -17 -13 -17 -41 -25 -15 -11 40 19 75 17
82 -31 83 -24 1 -51 -3 -61 -9z m59 -57 c-9 -64 -54 -108 -69 -68 -9 23 12 89
35 108 30 26 41 12 34 -40z"/>
<path d="M670 1355 c-6 -8 -10 -22 -7 -32 3 -14 7 -12 17 12 12 27 14 28 17 8
2 -11 -2 -46 -10 -77 -14 -52 -10 -75 11 -62 5 3 14 30 21 60 9 39 20 62 38
76 41 32 50 12 31 -65 -14 -60 -11 -84 10 -71 5 3 14 30 21 60 9 39 20 62 38
76 39 31 51 12 30 -51 -17 -54 -10 -89 16 -89 20 0 44 23 52 48 9 30 -9 28
-23 -3 -20 -43 -32 -28 -16 19 9 25 14 57 12 73 -2 24 -8 28 -36 31 -18 2 -39
-2 -47 -8 -9 -8 -15 -8 -20 0 -8 13 -68 13 -82 -1 -8 -8 -13 -8 -17 0 -10 16
-41 14 -56 -4z"/>
<path d="M980 1355 c-6 -8 -10 -22 -7 -32 3 -14 7 -12 17 12 12 27 14 28 17 8
2 -11 -2 -46 -10 -77 -14 -52 -10 -75 11 -62 5 3 14 30 21 60 9 39 20 62 38
76 41 32 50 12 31 -65 -14 -60 -11 -84 10 -71 5 3 14 30 21 60 9 39 20 62 38
76 39 31 51 12 30 -51 -17 -54 -10 -89 16 -89 20 0 44 23 52 48 9 30 -9 28
-23 -3 -20 -43 -32 -28 -16 19 9 25 14 57 12 73 -2 24 -8 28 -36 31 -18 2 -39
-2 -47 -8 -9 -8 -15 -8 -20 0 -8 13 -68 13 -82 -1 -8 -8 -13 -8 -17 0 -10 16
-41 14 -56 -4z"/>
<path d="M1337 1359 c-49 -29 -59 -126 -16 -150 28 -14 82 -3 104 21 26 29 11
35 -23 10 -40 -30 -66 -23 -70 18 -3 30 -2 32 30 32 45 0 71 20 66 51 -2 20
-9 24 -38 26 -19 2 -43 -2 -53 -8z m68 -24 c0 -14 -10 -21 -32 -26 -38 -7 -42
2 -12 32 23 23 44 21 44 -6z"/>
<path d="M1460 1355 c-6 -8 -10 -22 -7 -32 3 -14 7 -12 17 12 12 27 14 28 17
8 2 -11 -2 -46 -10 -77 -14 -53 -10 -75 13 -61 6 3 10 12 10 19 0 33 33 117
49 126 16 8 18 7 14 -11 -5 -17 -2 -20 13 -17 28 5 25 42 -4 46 -13 2 -29 -2
-37 -8 -9 -7 -15 -8 -20 0 -9 15 -41 12 -55 -5z"/>
<path d="M0 1166 c0 -21 38 -64 73 -84 28 -15 73 -18 332 -22 319 -5 321 -6
378 -58 l27 -26 28 26 c56 52 58 53 377 58 327 5 338 7 384 66 20 25 28 54 15
54 -3 0 -23 -15 -46 -32 l-40 -33 -307 -5 c-325 -5 -327 -6 -383 -58 l-27 -25
-35 31 c-20 17 -52 36 -73 41 -22 7 -151 11 -311 11 -255 0 -275 1 -313 20
-22 12 -42 27 -46 35 -7 19 -33 20 -33 1z"/>
</g>
</svg>
