<svg xmlns="http://www.w3.org/2000/svg" xmlns:svgjs="http://svgjs.com/svgjs" xmlns:xlink="http://www.w3.org/1999/xlink" width="288" height="288"><svg xmlns="http://www.w3.org/2000/svg" width="288" height="288" version="1.0" viewBox="0 0 41 62"><path fill="#666" d="M255 508 c4 -13 13 -33 21 -45 l14 -23 -130 0 c-80 0 -130 -4 -130-10 0 -6 50 -10 130 -10 l130 0 -20 -37 c-24 -45 -25 -53 -5 -53 8 0 15 7 15
16 0 9 15 31 34 50 l34 34 -34 34 c-19 19 -34 41 -34 50 0 9 -7 16 -16 16 -11
0 -14 -6 -9 -22z" class="color000 svgShape" transform="matrix(.1 0 0 -.1 0 62)"/></svg></svg>