<svg xmlns="http://www.w3.org/2000/svg" xmlns:svgjs="http://svgjs.com/svgjs" xmlns:xlink="http://www.w3.org/1999/xlink" width="288" height="288"><svg xmlns="http://www.w3.org/2000/svg" width="288" height="288" version="1.0" viewBox="0 0 49 62"><path fill="#666" d="M100 514 c0 -9 -15 -31 -34 -50 l-34 -34 34 -34 c19 -19 34 -41 34-50 0 -9 5 -16 10 -16 15 0 12 27 -5 60 l-16 30 131 0 c80 0 130 4 130 10 0 6
-50 10 -130 10 l-131 0 16 30 c17 33 20 60 5 60 -5 0 -10 -7 -10 -16z" class="color000 svgShape" transform="matrix(.1 0 0 -.1 0 62)"/></svg></svg>