<?xml version="1.0" standalone="no"?>
<!DOCTYPE svg PUBLIC "-//W3C//DTD SVG 20010904//EN"
 "http://www.w3.org/TR/2001/REC-SVG-20010904/DTD/svg10.dtd">
<svg version="1.0" xmlns="http://www.w3.org/2000/svg"
 width="53.000000pt" height="135.000000pt" viewBox="0 0 53.000000 135.000000"
 preserveAspectRatio="xMidYMid meet">
<metadata>
Created by potrace 1.16, written by Peter Selinger 2001-2019
</metadata>
<g transform="translate(0.000000,135.000000) scale(0.100000,-0.100000)"
fill="#000000" stroke="none">
<path d="M226 1321 c-4 -5 -2 -11 4 -13 6 -2 4 -25 -6 -61 -8 -32 -12 -67 -9
-77 14 -45 88 -27 101 24 10 41 1 61 -29 64 -26 3 -27 6 -21 38 5 30 4 34 -14
34 -12 0 -23 -4 -26 -9z m64 -97 c0 -33 -17 -64 -35 -64 -20 0 -19 39 1 68 20
29 34 28 34 -4z"/>
<path d="M267 1047 c-30 -63 -59 -189 -136 -589 -12 -59 -26 -118 -32 -132
-15 -33 -36 -40 -35 -12 1 12 -5 21 -14 21 -9 0 -15 -9 -15 -25 0 -22 4 -25
34 -25 25 0 39 7 53 25 24 32 76 246 123 499 20 106 42 209 50 227 15 37 26
46 18 15 -6 -23 25 -38 33 -16 10 26 -4 45 -35 45 -23 0 -32 -7 -44 -33z"/>
<path d="M74 162 c-14 -9 -34 -47 -34 -64 0 -29 20 -42 69 -44 42 -2 53 1 62
18 15 27 2 36 -17 12 -13 -15 -15 -16 -10 -2 2 9 8 33 12 52 l6 36 -38 0 c-22
0 -44 -4 -50 -8z m48 -38 c-4 -33 -19 -54 -38 -54 -19 0 -18 40 2 68 21 30 40
22 36 -14z"/>
</g>
</svg>
